<?xml version="1.0" encoding="UTF-8" standalone="no"?>
<!-- Created with Inkscape (http://www.inkscape.org/) -->

<svg
   xmlns:dc="http://purl.org/dc/elements/1.1/"
   xmlns:cc="http://creativecommons.org/ns#"
   xmlns:rdf="http://www.w3.org/1999/02/22-rdf-syntax-ns#"
   xmlns:svg="http://www.w3.org/2000/svg"
   xmlns="http://www.w3.org/2000/svg"
   xmlns:xlink="http://www.w3.org/1999/xlink"
   xmlns:sodipodi="http://sodipodi.sourceforge.net/DTD/sodipodi-0.dtd"
   xmlns:inkscape="http://www.inkscape.org/namespaces/inkscape"
   version="1.1"
   id="svg3349"
   width="319.31543"
   height="76.98362"
   viewBox="0 0 319.31543 76.98362"
   sodipodi:docname="orinours-logo.svg"
   inkscape:version="0.92.4 (5da689c313, 2019-01-14)">
  <metadata
     id="metadata3355">
    <rdf:RDF>
      <cc:Work
         rdf:about="">
        <dc:format>image/svg+xml</dc:format>
        <dc:type
           rdf:resource="http://purl.org/dc/dcmitype/StillImage" />
        <dc:title></dc:title>
      </cc:Work>
    </rdf:RDF>
  </metadata>
  <defs
     id="defs3353">
    <linearGradient
       id="linearGradient4597"
       inkscape:collect="always">
      <stop
         id="stop4593"
         offset="0"
         style="stop-color:#e48301;stop-opacity:1" />
      <stop
         id="stop4595"
         offset="1"
         style="stop-color:#8f5bfe;stop-opacity:1" />
    </linearGradient>
    <linearGradient
       inkscape:collect="always"
       xlink:href="#linearGradient4597"
       id="linearGradient4572"
       x1="20.430769"
       y1="-8.4060917"
       x2="76.242767"
       y2="37.563137"
       gradientUnits="userSpaceOnUse" />
  </defs>
  <sodipodi:namedview
     pagecolor="#ffffff"
     bordercolor="#666666"
     borderopacity="1"
     objecttolerance="10"
     gridtolerance="10"
     guidetolerance="10"
     inkscape:pageopacity="0"
     inkscape:pageshadow="2"
     inkscape:window-width="1920"
     inkscape:window-height="1017"
     id="namedview3351"
     showgrid="false"
     fit-margin-top="0"
     fit-margin-left="0"
     fit-margin-right="0"
     fit-margin-bottom="0"
     inkscape:zoom="2.1536145"
     inkscape:cx="203.24681"
     inkscape:cy="73.710932"
     inkscape:window-x="-8"
     inkscape:window-y="-8"
     inkscape:window-maximized="1"
     inkscape:current-layer="svg3349" />
  <path
     id="circle3941"
     style="opacity:1;vector-effect:none;fill:url(#linearGradient4572);fill-opacity:1;fill-rule:evenodd;stroke:none;stroke-width:1.09203959;stroke-linecap:round;stroke-linejoin:round;stroke-miterlimit:4;stroke-dasharray:none;stroke-dashoffset:0;stroke-opacity:1;paint-order:markers fill stroke"
     d="m 44.154717,70.047546 a 6.9360743,6.9360743 0 0 1 -6.936074,6.936075 6.9360743,6.9360743 0 0 1 -6.936074,-6.936075 6.9360743,6.9360743 0 0 1 6.936074,-6.936074 6.9360743,6.9360743 0 0 1 6.936074,6.936074 z m 23.272332,0 a 6.9360743,6.9360743 0 0 1 -6.936075,6.936075 6.9360743,6.9360743 0 0 1 -6.936074,-6.936075 6.9360743,6.9360743 0 0 1 6.936074,-6.936074 6.9360743,6.9360743 0 0 1 6.936075,6.936074 z M 44.954312,67.800001 c 0,-0.933381 -1.2,-2 -1.2,-2 l 10.249071,0.0587 -1.580614,2.39337 -7.468457,-0.45204 z m -11.2,-5.216156 C 35.370202,57.727904 36.911214,54.135242 38.926467,49.10123 7.53047,16.631035 16.787769,17.681978 7.522507,3.4599331 6.2750003,3.4892931 4.6486304,3.9010581 3.9083517,4.3749781 2.2703874,5.4235861 -0.80256319,2.7100621 0.19500561,1.0959611 L 12.674029,0 l 1.198429,4.0000001 1.198429,4 C 25.486769,-3.3832288 46.844476,-1.8589236 53.964679,13.261854 58.960331,-3.2474514 89.180565,-2.631068 92.37666,9.4582391 94.323774,25.656042 71.52124,47.084063 69.932883,48.675778 L 42.683237,50 37.70543,62.313929 Z"
     inkscape:connector-curvature="0" />
  <path
     id="path3949"
     style="fill:#000000;stroke-width:1.18198955"
     d="m 302.97248,63.275067 c 0.0887,2.346405 -3.63578,0.927451 -6.68752,-1.545366 28.96227,-8.059742 0.74198,-9.819714 2.95416,-19.449456 0.81345,-3.727493 5.33419,-6.658834 10.90746,-7.072654 5.95435,-0.442105 9.16574,1.395403 9.16884,5.246273 -34.72123,-1.320216 14.75484,9.105668 -9.16698,22.574064 -6.05835,2.465408 -4.02973,-2.458071 -7.17596,0.247139 z m -22.85668,0.439416 c -0.93207,-1.33072 -1.74702,-1.73192 -2.16016,-1.06345 -1.23403,1.9967 -2.45249,1.08922 -2.92244,-2.17656 -2.83324,-19.68897 -2.82488,-18.79647 -0.20824,-22.22707 2.70213,-3.54267 5.60495,-4.16373 6.33913,-1.35626 0.61204,2.34046 1.50119,2.314 3.69486,-0.10999 2.5315,-2.79727 6.84499,-3.47328 10.40744,-1.63107 3.80603,1.96818 4.72001,4.76544 2.60952,7.98647 -1.63353,2.49307 -1.64872,2.49529 -3.74149,0.54558 -2.43378,-2.26742 -8.43072,-2.62393 -11.11546,-0.6608 -1.67042,1.22144 -1.68257,1.73733 -0.20886,8.87201 0.86058,4.16634 1.81354,8.22365 2.11769,9.01624 0.30415,0.7926 -0.31736,2.22875 -1.38113,3.19144 -1.84991,1.674147 -1.99928,1.657327 -3.43086,-0.38654 z M 269.24899,40.390299 c 1.18661,11.08037 0.25881,20.23077 -2.31195,22.80152 l -2.21702,2.21702 v -2.32921 c 0,-1.65957 -0.43125,-2.16373 -1.5,-1.75361 -1.09039,0.41843 -1.5,-0.11709 -1.5,-1.9611 v -2.53671 l -3.09134,2.20122 c -1.70023,1.21068 -5.03076,2.41983 -7.40117,2.68701 -5.63734,0.63541 -6.419,-0.83843 -7.16832,-13.51607 -0.55178,-9.33537 -0.47738,-9.82666 1.80814,-11.93995 3.60459,-3.33294 5.31395,-1.72273 3.86875,3.64434 -1.20596,4.47858 -0.67744,8.79395 1.63006,13.30964 1.5988,3.12878 4.02836,3.48681 8.38239,1.23525 2.76452,-1.42959 2.89715,-1.78093 2.35927,-6.25 -0.31346,-2.60439 -1.01959,-6.21517 -1.56918,-8.02396 -0.72548,-2.38767 -0.66698,-3.68906 0.21352,-4.75 1.48605,-1.79058 3.65387,-1.89908 4.22193,-0.21129 0.33274,0.98863 0.75054,0.97781 1.99819,-0.0518 1.39931,-1.15476 1.65646,-0.56432 2.27673,5.22768 z m -124.7192,23.413695 c -0.93207,-1.33072 -1.74702,-1.73192 -2.16016,-1.06345 -1.23403,1.9967 -2.45249,1.08922 -2.92244,-2.17656 -2.83324,-19.68897 -2.82488,-18.79647 -0.20824,-22.22707 2.70213,-3.54267 5.60495,-4.16373 6.33913,-1.35626 0.61204,2.34046 1.50119,2.314 3.69486,-0.10999 2.5315,-2.79727 6.84499,-3.47328 10.40744,-1.63107 3.80603,1.96818 4.72001,4.76544 2.60952,7.98647 -1.63353,2.49307 -1.64872,2.49529 -3.74149,0.54558 -2.43378,-2.26742 -8.43072,-2.62393 -11.11546,-0.6608 -1.67042,1.22144 -1.68257,1.73733 -0.20886,8.87201 0.86058,4.16634 1.81354,8.22365 2.11769,9.01624 0.30415,0.7926 -0.31736,2.22875 -1.38113,3.19144 -1.84991,1.674147 -1.99928,1.657327 -3.43086,-0.38654 z m 24.84329,-2.24001 c -0.21361,-0.6875 -0.66459,-5.78261 -1.00217,-11.32248 -0.56342,-9.2459 -0.44095,-10.2922 1.49235,-12.75 1.15838,-1.47263 2.90742,-2.67752 3.88677,-2.67752 1.52426,0 1.71422,0.69111 1.31939,4.80015 -0.25368,2.64009 0.0592,8.15259 0.69538,12.25 1.10777,7.13529 1.06543,7.52375 -1.00276,9.19985 -2.53067,2.05092 -4.84048,2.26523 -5.38896,0.5 z m 48.82946,-0.18692 c -8.09704,-3.52402 -8.57408,-14.09373 -1.01133,-22.40809 6.73758,-7.40718 18.1841,-5.87561 22.73342,3.04178 3.25902,6.38821 2.25617,12.14777 -2.96281,17.01598 -3.74685,3.49503 -4.5068,3.78423 -9.84886,3.74811 -3.18379,-0.0215 -7.19348,-0.65053 -8.91042,-1.39778 z m 14.03174,-5.96104 c 1.84019,-0.76888 3.6681,-1.91946 4.06203,-2.55684 2.52154,-4.07994 -5.80824,-12.0452 -12.59643,-12.0452 -3.22348,0 -4.06397,0.4635 -5.34996,2.95034 -4.72761,9.14219 3.45529,16.00924 13.88436,11.6517 z m -49.93901,-1.02794 c -1.18661,-11.08037 -0.25881,-20.23077 2.31195,-22.80152 l 2.21702,-2.21702 v 2.32921 c 0,1.65957 0.43125,2.16373 1.5,1.75361 1.09039,-0.41843 1.5,0.11709 1.5,1.9611 v 2.53671 l 3.09134,-2.20122 c 1.70023,-1.21068 5.03076,-2.41983 7.40117,-2.68701 5.63734,-0.63541 6.419,0.83843 7.16832,13.51607 0.55178,9.33537 0.47738,9.82666 -1.80814,11.93995 -3.60459,3.33294 -5.31395,1.72273 -3.86875,-3.64434 1.20596,-4.47858 0.67744,-8.79395 -1.63006,-13.30964 -1.5988,-3.12878 -4.02836,-3.48681 -8.38239,-1.23525 -2.76452,1.42959 -2.89715,1.78093 -2.35927,6.25 0.31346,2.60439 1.01959,6.21517 1.56918,8.02396 0.72548,2.38767 0.66698,3.68906 -0.21352,4.75 -1.48605,1.79058 -3.65387,1.89908 -4.22193,0.21129 -0.33274,-0.98863 -0.75054,-0.97781 -1.99819,0.0518 -1.39931,1.15476 -1.65646,0.56432 -2.27673,-5.22768 z m -78.47883,0.53836 c -8.10162,-8.51656 -8.02583,-23.24843 0.16747,-32.55651 7.30734,-8.30158 17.55135,-9.65565 24.43639,-3.23005 2.8774,2.68538 3.62079,4.34628 4.8281,10.78706 1.54136,8.22284 1.01394,12.98384 -1.95629,17.65962 -4.88358,7.68779 -10.74214,11.22742 -18.58287,11.22742 -4.73456,0 -5.52223,-0.34433 -8.8928,-3.88754 z m 17.33661,-0.47648 c 3.26814,-1.36552 8.67119,-6.86957 8.67119,-8.83328 0,-0.57413 -1.78834,0.7989 -3.97409,3.05117 -2.18575,2.25226 -5.11075,4.38031 -6.5,4.72899 -1.38925,0.34868 -2.52591,1.03518 -2.52591,1.52555 0,1.18614 0.48631,1.13307 4.32881,-0.47243 z m -2.1701,-3.63598 c 1.09733,0 3.31052,-1.31538 4.91821,-2.92307 2.42581,-2.42581 2.92213,-3.74424 2.9175,-7.75 -0.0167,-14.4951 -8.23074,-22.52896 -16.37278,-16.01374 -2.31391,1.85158 -2.97466,3.30533 -3.36937,7.41322 -0.27005,2.81048 0.0524,7.3751 0.71654,10.1436 1.29437,5.39551 5.45766,10.56405 7.78884,9.6695 0.77326,-0.29673 2.30374,-0.53951 3.40106,-0.53951 z m -8.8775,-29.51044 c 1.52966,-0.96826 2.56583,-1.97585 2.3026,-2.23908 -0.45436,-0.45436 -7.58381,3.54035 -7.58381,4.2493 0,0.18515 -0.26689,1.16095 -0.59309,2.16844 -0.5024,1.5517 -0.31127,1.50687 1.25,-0.2932 1.0137,-1.16874 3.09463,-2.9172 4.6243,-3.88546 z m 58.95147,8.677 c 0.55214,-6.01257 3.76309,-10.57078 5.92411,-8.40976 1.71701,1.717 -0.46225,8.25335 -3.76852,11.30309 l -2.64537,2.44011 z m -24.52713,33.82345 c -0.93207,-1.33072 -1.74702,-1.73192 -2.16016,-1.06345 -1.23403,1.9967 -2.45249,1.08922 -2.92244,-2.17656 -2.83324,-19.68897 -2.82488,-18.79647 -0.20824,-22.22707 2.70213,-3.54267 5.60495,-4.16373 6.33913,-1.35626 0.61204,2.34046 1.50119,2.314 3.69486,-0.10999 2.5315,-2.79727 6.84499,-3.47328 10.40744,-1.63107 3.80603,1.96818 4.72001,4.76544 2.60952,7.98647 -1.63353,2.49307 -1.64872,2.49529 -3.74149,0.54558 -2.43378,-2.26742 -8.43072,-2.62393 -11.11546,-0.6608 -1.67042,1.22144 -1.68257,1.73733 -0.20886,8.87201 0.86058,4.16634 1.81354,8.22365 2.11769,9.01624 0.30415,0.7926 -0.31736,2.22875 -1.38113,3.19144 -1.84991,1.674147 -1.99928,1.657327 -3.43086,-0.38654 z m 24.84329,-2.24001 c -0.21361,-0.6875 -0.66459,-5.78261 -1.00217,-11.32248 -0.56342,-9.2459 -0.44095,-10.2922 1.49235,-12.75 1.15838,-1.47263 2.90742,-2.67752 3.88677,-2.67752 1.52426,0 1.71422,0.69111 1.31939,4.80015 -0.25368,2.64009 0.0592,8.15259 0.69538,12.25 1.10777,7.13529 1.06543,7.52375 -1.00276,9.19985 -2.53067,2.05092 -4.84048,2.26523 -5.38896,0.5 z m 48.82946,-0.18692 c -8.09704,-3.52402 -8.57408,-14.09373 -1.01133,-22.40809 6.73758,-7.40718 18.1841,-5.87561 22.73342,3.04178 3.25902,6.38821 2.25617,12.14777 -2.96281,17.01598 -3.74685,3.49503 -4.5068,3.78423 -9.84886,3.74811 -3.18379,-0.0215 -7.19348,-0.65053 -8.91042,-1.39778 z m 14.03174,-5.96104 c 1.84019,-0.76888 3.6681,-1.91946 4.06203,-2.55684 2.52154,-4.07994 -5.80824,-12.0452 -12.59643,-12.0452 -3.22348,0 -4.06397,0.4635 -5.34996,2.95034 -4.72761,9.14219 3.45529,16.00924 13.88436,11.6517 z m -49.93901,-1.02794 c -1.18661,-11.08037 -0.25881,-20.23077 2.31195,-22.80152 l 2.21702,-2.21702 v 2.32921 c 0,1.65957 0.43125,2.16373 1.5,1.75361 1.09039,-0.41843 1.5,0.11709 1.5,1.9611 v 2.53671 l 3.09134,-2.20122 c 1.70023,-1.21068 5.03076,-2.41983 7.40117,-2.68701 5.63734,-0.63541 6.419,0.83843 7.16832,13.51607 0.55178,9.33537 0.47738,9.82666 -1.80814,11.93995 -3.60459,3.33294 -5.31395,1.72273 -3.86875,-3.64434 1.20596,-4.47858 0.67744,-8.79395 -1.63006,-13.30964 -1.5988,-3.12878 -4.02836,-3.48681 -8.38239,-1.23525 -2.76452,1.42959 -2.89715,1.78093 -2.35927,6.25 0.31346,2.60439 1.01959,6.21517 1.56918,8.02396 0.72548,2.38767 0.66698,3.68906 -0.21352,4.75 -1.48605,1.79058 -3.65387,1.89908 -4.22193,0.21129 -0.33274,-0.98863 -0.75054,-0.97781 -1.99819,0.0518 -1.39931,1.15476 -1.65646,0.56432 -2.27673,-5.22768 z m -78.47883,0.53836 c -8.10162,-8.51656 -8.02583,-23.24843 0.16747,-32.55651 7.30734,-8.30158 17.55135,-9.65565 24.43639,-3.23005 2.8774,2.68538 3.62079,4.34628 4.8281,10.78706 1.54136,8.22284 1.01394,12.98384 -1.95629,17.65962 -4.88358,7.68779 -10.74214,11.22742 -18.58287,11.22742 -4.73456,0 -5.52223,-0.34433 -8.8928,-3.88754 z m 17.33661,-0.47648 c 3.26814,-1.36552 8.67119,-6.86957 8.67119,-8.83328 0,-0.57413 -1.78834,0.7989 -3.97409,3.05117 -2.18575,2.25226 -5.11075,4.38031 -6.5,4.72899 -1.38925,0.34868 -2.52591,1.03518 -2.52591,1.52555 0,1.18614 0.48631,1.13307 4.32881,-0.47243 z m -2.1701,-3.63598 c 1.09733,0 3.31052,-1.31538 4.91821,-2.92307 2.42581,-2.42581 2.92213,-3.74424 2.9175,-7.75 -0.0167,-14.4951 -8.23074,-22.52896 -16.37278,-16.01374 -2.31391,1.85158 -2.97466,3.30533 -3.36937,7.41322 -0.27005,2.81048 0.0524,7.3751 0.71654,10.1436 1.29437,5.39551 5.45766,10.56405 7.78884,9.6695 0.77326,-0.29673 2.30374,-0.53951 3.40106,-0.53951 z m -8.8775,-29.51044 c 1.52966,-0.96826 2.56583,-1.97585 2.3026,-2.23908 -0.45436,-0.45436 -7.58381,3.54035 -7.58381,4.2493 0,0.18515 -0.26689,1.16095 -0.59309,2.16844 -0.5024,1.5517 -0.31127,1.50687 1.25,-0.2932 1.0137,-1.16874 3.09463,-2.9172 4.6243,-3.88546 z m 58.95147,8.677 c 0.55214,-6.01257 3.76309,-10.57078 5.92411,-8.40976 1.71701,1.717 -0.46225,8.25335 -3.76852,11.30309 l -2.64537,2.44011 z"
     inkscape:connector-curvature="0" />
</svg>
