<?xml version="1.0" encoding="UTF-8" standalone="no"?>
<!-- Created with Inkscape (http://www.inkscape.org/) -->

<svg
   xmlns:dc="http://purl.org/dc/elements/1.1/"
   xmlns:cc="http://creativecommons.org/ns#"
   xmlns:rdf="http://www.w3.org/1999/02/22-rdf-syntax-ns#"
   xmlns:svg="http://www.w3.org/2000/svg"
   xmlns="http://www.w3.org/2000/svg"
   xmlns:xlink="http://www.w3.org/1999/xlink"
   xmlns:sodipodi="http://sodipodi.sourceforge.net/DTD/sodipodi-0.dtd"
   xmlns:inkscape="http://www.inkscape.org/namespaces/inkscape"
   version="1.1"
   id="svg3955"
   width="352.61508"
   height="76.250648"
   viewBox="0 0 352.61508 76.250648"
   sodipodi:docname="orinocam-logo.svg"
   inkscape:version="0.92.4 (5da689c313, 2019-01-14)">
  <metadata
     id="metadata3961">
    <rdf:RDF>
      <cc:Work
         rdf:about="">
        <dc:format>image/svg+xml</dc:format>
        <dc:type
           rdf:resource="http://purl.org/dc/dcmitype/StillImage" />
        <dc:title></dc:title>
      </cc:Work>
    </rdf:RDF>
  </metadata>
  <defs
     id="defs3959">
    <linearGradient
       inkscape:collect="always"
       id="linearGradient4556">
      <stop
         style="stop-color:#e58701;stop-opacity:1;"
         offset="0"
         id="stop4552" />
      <stop
         style="stop-color:#8f5bfe;stop-opacity:1"
         offset="1"
         id="stop4554" />
    </linearGradient>
    <linearGradient
       inkscape:collect="always"
       xlink:href="#linearGradient4556"
       id="linearGradient4558"
       x1="13.59795"
       y1="-93.642487"
       x2="75.879089"
       y2="-50.813034"
       gradientUnits="userSpaceOnUse" />
    <linearGradient
       inkscape:collect="always"
       xlink:href="#linearGradient4556"
       id="linearGradient4560"
       gradientUnits="userSpaceOnUse"
       x1="13.59795"
       y1="-93.642487"
       x2="75.879089"
       y2="-50.813034" />
    <linearGradient
       inkscape:collect="always"
       xlink:href="#linearGradient4556"
       id="linearGradient4562"
       gradientUnits="userSpaceOnUse"
       x1="13.59795"
       y1="-93.642487"
       x2="75.879089"
       y2="-50.813034" />
    <linearGradient
       inkscape:collect="always"
       xlink:href="#linearGradient4556"
       id="linearGradient4564"
       gradientUnits="userSpaceOnUse"
       x1="13.59795"
       y1="-93.642487"
       x2="75.879089"
       y2="-50.813034" />
  </defs>
  <sodipodi:namedview
     pagecolor="#ffffff"
     bordercolor="#666666"
     borderopacity="1"
     objecttolerance="10"
     gridtolerance="10"
     guidetolerance="10"
     inkscape:pageopacity="0"
     inkscape:pageshadow="2"
     inkscape:window-width="1920"
     inkscape:window-height="1017"
     id="namedview3957"
     showgrid="false"
     fit-margin-top="0"
     fit-margin-left="0"
     fit-margin-right="0"
     fit-margin-bottom="0"
     inkscape:zoom="1.684002"
     inkscape:cx="132.80137"
     inkscape:cy="149.14539"
     inkscape:window-x="-8"
     inkscape:window-y="-8"
     inkscape:window-maximized="1"
     inkscape:current-layer="svg3955" />
  <g
     id="g4531"
     transform="translate(6.0375799,85.948887)"
     style="fill:url(#linearGradient4558);fill-opacity:1;stroke:none;stroke-width:2;stroke-miterlimit:4;stroke-dasharray:none;stroke-opacity:1;paint-order:stroke markers fill">
    <path
       sodipodi:nodetypes="cccccccccccccccc"
       inkscape:connector-curvature="0"
       id="path4520"
       d="m -5.9289567,-85.881727 12.5352435,-0.06716 2.449522,7.664035 77.1970582,1.039191 -12.461985,49.043897 -57.452426,1.633015 -0.750588,1.87647 -3.562942,0.74228 0.899044,-4.103309 -11.5878671,-55.130588 c -2.7420782,1.942221 -8.2110949,1.842217 -7.2650596,-2.697831 z m 27.1581477,64.678161 2.226838,2.89489 h 36.817059 l 1.418229,-2.456445 z"
       style="fill:url(#linearGradient4560);fill-opacity:1;stroke:none;stroke-width:2;stroke-linecap:butt;stroke-linejoin:miter;stroke-miterlimit:4;stroke-dasharray:none;stroke-opacity:1;paint-order:stroke markers fill" />
    <circle
       style="opacity:1;vector-effect:none;fill:url(#linearGradient4562);fill-opacity:1;fill-rule:evenodd;stroke:none;stroke-width:2;stroke-linecap:round;stroke-linejoin:round;stroke-miterlimit:4;stroke-dasharray:none;stroke-dashoffset:0;stroke-opacity:1;paint-order:stroke markers fill"
       id="circle4524"
       cx="68.549507"
       cy="-16.56432"
       r="6.8660846" />
    <circle
       r="6.8660846"
       cy="-16.56432"
       cx="14.549507"
       id="circle4526"
       style="opacity:1;vector-effect:none;fill:url(#linearGradient4564);fill-opacity:1;fill-rule:evenodd;stroke:none;stroke-width:2;stroke-linecap:round;stroke-linejoin:round;stroke-miterlimit:4;stroke-dasharray:none;stroke-dashoffset:0;stroke-opacity:1;paint-order:stroke markers fill" />
    <path
       style="opacity:0.51399997;vector-effect:none;fill:#000000;fill-opacity:1;fill-rule:evenodd;stroke:#e5e5e5;stroke-width:9.93637753;stroke-linecap:round;stroke-linejoin:round;stroke-miterlimit:4;stroke-dasharray:none;stroke-dashoffset:0;stroke-opacity:1;paint-order:stroke markers fill"
       id="path839"
       sodipodi:type="arc"
       sodipodi:cx="43.300266"
       sodipodi:cy="-51.897854"
       sodipodi:rx="18.265503"
       sodipodi:ry="18.265503"
       sodipodi:start="0"
       sodipodi:end="6.2722246"
       sodipodi:open="true"
       d="M 61.565769,-51.897854 A 18.265503,18.265503 0 0 1 43.350317,-33.632419 18.265503,18.265503 0 0 1 25.035038,-51.797753 18.265503,18.265503 0 0 1 43.150116,-70.16274 18.265503,18.265503 0 0 1 61.564672,-52.098053" />
  </g>
  <path
     id="path843"
     style="fill:#000000"
     d="m 315.52007,60.351153 c -0.33992,-0.55 -1.47109,-1 -2.5137,-1 -2.06553,0 -2.43683,-3.287264 -3.89389,-15.5 -0.91031,-7.629921 0.20302,-11.517375 3.85877,-13.473874 1.55139,-0.830278 2.23266,-0.60174 3.46929,1.163796 l 1.53881,2.196958 2.5477,-2.39344 c 3.12557,-2.936321 8.51352,-3.189846 11.44328,-0.538452 3.92129,3.548713 1.55306,10.151128 -2.5323,7.05987 -2.58127,-1.953159 -9.8186,-1.94197 -11.44498,0.01769 -1.0357,1.247943 -0.9421,3.10413 0.50403,9.995152 1.42957,6.812166 1.53235,10.756086 0.52701,11.967448 -1.45013,1.747302 -2.63099,1.917438 -3.50402,0.504852 z m 17.00547,0.0088 c -0.40216,-0.650693 -1.55414,-0.967872 -2.55998,-0.70484 -1.55329,0.406196 -1.93209,-0.348564 -2.51453,-5.010312 -1.04059,-8.328568 -0.0102,-18.773552 2.17143,-22.011978 1.83314,-2.721095 1.88119,-2.732685 2.20534,-0.531713 0.18226,1.2375 0.97507,2.25 1.76182,2.25 0.78675,0 1.43045,0.838796 1.43045,1.863991 0,1.747268 0.2924,1.715958 4.66948,-0.5 5.40074,-2.734203 8.56408,-2.992415 10.34665,-0.844559 0.69356,0.835687 1.64753,5.673187 2.11994,10.75 0.76713,8.243974 0.66062,9.497776 -0.99649,11.730568 -2.24409,3.023695 -4.75663,3.312399 -4.35142,0.5 1.55349,-10.782091 -0.82574,-18.5 -5.70306,-18.5 -1.57494,0 -3.88896,0.830339 -5.14225,1.845197 -2.23998,1.813826 -2.25628,1.976399 -0.95869,9.56219 1.15914,6.776403 1.13309,7.903937 -0.21374,9.250764 -1.1341,1.134096 -1.72431,1.225481 -2.26495,0.350692 z m -50.75205,-11.423131 2.5477,-2.39344 c 3.12557,-2.936321 14.51352,-3.189846 17.44328,-0.538452 3.92129,3.548713 1.55306,6.151128 -2.5323,3.05987 -2.58127,-1.953159 -17.44498,0.01769 -17.44498,0.01769 z m 0.54619,10.621963 c -0.40216,-0.650693 -1.55414,-0.967872 -2.55998,-0.70484 -1.55329,0.406196 -1.93209,-0.348564 -2.51453,-5.010312 -1.04059,-8.328568 3.9898,-18.773552 6.17143,-22.011978 1.83314,-2.721095 1.88119,-2.732685 2.20534,-0.531713 0.18226,1.2375 0.97507,2.25 1.76182,2.25 0.78675,0 1.43045,0.838796 1.43045,1.863991 0,1.747268 0.2924,1.715958 4.66948,-0.5 5.40074,-2.734203 8.56408,-2.992415 10.34665,-0.844559 0.69356,0.835687 1.64753,5.673187 2.11994,10.75 0.76713,8.243974 2.66062,9.497776 1.00351,11.730568 -2.24409,3.023695 -4.75663,3.312399 -4.35142,0.5 1.55349,-10.782091 -2.82574,-18.5 -7.70306,-18.5 -1.57494,0 -3.88896,0.830339 -5.14225,1.845197 -2.23998,1.813826 -6.25628,1.976399 -4.95869,9.56219 1.15914,6.776403 1.13309,7.903937 -0.21374,9.250764 -1.1341,1.134096 -1.72431,1.225481 -2.26495,0.350692 z m -137.91929,3.691867 c -0.33992,-0.55 -1.47109,-1 -2.5137,-1 -2.06553,0 -2.43683,-1.287264 -3.89389,-13.5 -0.91031,-7.629921 0.20302,-11.517375 3.85877,-13.473874 1.55139,-0.830278 2.23266,-0.601742 3.46929,1.163796 l 1.53881,2.196958 2.5477,-2.39344 c 3.12557,-2.936321 8.51352,-3.189846 11.44328,-0.538452 3.92129,3.548713 1.55306,10.151128 -2.5323,7.05987 -2.58127,-1.953159 -9.8186,-1.94197 -11.44498,0.01769 -1.0357,1.247943 -0.9421,3.10413 0.50403,9.995152 1.42957,6.812166 1.53235,8.756086 0.52701,9.967448 -1.45013,1.747302 -2.63099,1.917438 -3.50402,0.504852 z m 25.71557,-2.271013 c -0.54694,-0.675943 -1.3097,-5.729299 -1.69503,-11.229679 -0.6523,-9.311394 -0.55153,-10.190189 1.46201,-12.75 3.9389,-5.007489 4.65593,-3.756714 5.36073,9.351107 0.35785,6.655228 0.40194,12.502808 0.098,12.994622 -1.19937,1.94062 -4.21466,2.883433 -5.22569,1.63395 z m 52.78443,0.636147 c -10.05145,-1.842029 -13.71437,-9.15189 -9.09732,-18.154972 6.91016,-13.474563 22.46424,-12.748543 27.08894,1.264434 1.52863,4.631809 0.0649,9.109069 -4.3895,13.426428 -3.41732,3.312193 -8.02619,4.485955 -13.60212,3.46411 z m 9.75,-7.338204 c 4.59963,-2.087849 5.16529,-3.700386 2.64653,-7.544502 -4.01227,-6.123493 -13.80025,-8.599529 -16.83983,-4.259922 -1.8732,2.67438 -2.03103,7.800689 -0.3067,9.962041 3.31018,4.149123 8.08232,4.755476 14.5,1.842383 z m 22.71603,5.56482 c -3.69899,-1.60145 -9.31967,-7.076597 -10.5284,-10.255793 -1.14014,-2.998803 0.0634,-6.128606 4.14383,-10.775949 3.91445,-4.458313 6.59563,-5.904142 14.96288,-8.06874 3.55061,-0.918539 7.08663,-2.191769 7.85782,-2.829399 1.18788,-0.982155 1.32307,-0.05378 0.88457,6.074798 -0.48256,6.744424 -1.82287,10.263333 -3.90917,10.263333 -0.48266,0 -0.87756,-1.154584 -0.87756,-2.565741 0,-1.411158 -0.46583,-3.436158 -1.03518,-4.5 -2.04232,-3.81611 -9.46593,-1.692732 -14.34211,4.102279 -2.90474,3.452086 -2.66028,4.653162 1.8689,9.182347 4.03296,4.032962 7.54123,4.370511 14.12016,1.358577 3.09645,-1.417604 5.88473,-2.577462 6.19616,-2.577462 1.13684,0 -5.40511,6.288916 -8.80793,8.467262 -4.98766,3.192894 -7.08785,3.616459 -10.53397,2.124488 z m -67.96056,-0.582907 c -0.40216,-0.650693 -1.55414,-0.967872 -2.55998,-0.70484 -1.55329,0.406196 -1.93209,-0.348564 -2.51453,-5.010312 -1.04059,-8.328568 -0.0102,-18.773552 2.17143,-22.011978 1.83314,-2.721097 1.88119,-2.732684 2.20534,-0.531713 0.18226,1.2375 0.97507,2.25 1.76182,2.25 0.78675,0 1.43045,0.838796 1.43045,1.863991 0,1.747268 0.2924,1.715958 4.66948,-0.5 5.40074,-2.734203 8.56408,-2.992415 10.34665,-0.844559 0.69356,0.835687 1.64753,5.673187 2.11994,10.75 0.76713,8.243974 0.66062,9.497776 -0.99649,11.730568 -2.24409,3.023695 -4.75663,3.312399 -4.35142,0.5 1.55349,-10.782091 -0.82574,-18.5 -5.70306,-18.5 -1.57494,0 -3.88896,0.830339 -5.14225,1.845197 -2.23998,1.813826 -2.25628,1.976399 -0.95869,9.56219 1.15914,6.776403 1.13309,7.903937 -0.21374,9.250764 -1.1341,1.134096 -1.72431,1.225481 -2.26495,0.350692 z M 104.4992,54.112618 C 99.36019,48.973607 97.42117,43.27936 98.20486,35.628256 c 0.97799,-9.547997 7.47706,-18.112204 15.4182,-20.317476 5.19784,-1.443452 6.02096,-1.362649 11.08337,1.088024 5.27529,2.553726 7.86706,7.430862 8.8264,16.609357 0.77622,7.426397 -0.71697,12.223418 -5.42798,17.437937 -4.42955,4.902984 -7.48511,6.507589 -14.05051,7.378519 -5.10218,0.676829 -5.20706,0.636088 -9.55514,-3.711999 z m 17.90661,-1.430204 c 3.83127,-2.59997 7.63936,-6.612536 6.94209,-7.314843 -0.20919,-0.210694 -2.02584,1.06169 -4.03701,2.827522 -2.01117,1.765831 -4.72629,3.697949 -6.03359,4.293596 -2.31134,1.053118 -3.24958,2.761963 -1.51646,2.761963 0.47325,0 2.56349,-1.155707 4.64497,-2.568238 z m 1.09458,-5.831762 c 3.93923,-3.939234 4.39294,-7.893404 1.87758,-16.363558 -2.70251,-9.100336 -9.86171,-12.006159 -15.5545,-6.313365 -2.59279,2.592791 -2.92308,3.613353 -2.92308,9.032119 0,6.22754 1.79146,12.0519 4.69313,15.258206 2.73747,3.02487 7.97881,2.314659 11.90687,-1.613402 z m -11.6,-28.209709 c 0,-0.748216 -6.45424,2.819603 -7.23469,3.999241 -1.78355,2.695818 -0.45957,2.536379 3.23469,-0.389532 2.2,-1.742432 4,-3.366802 4,-3.609709 z m 57.33412,10.82161 c 0.49821,-4.397723 2.94866,-9.211901 4.68893,-9.211901 0.53732,0 0.97695,1.567901 0.97695,3.484223 0,2.515949 -0.85478,4.391792 -3.07584,6.75 l -3.07583,3.265777 z"
     inkscape:connector-curvature="0" />
</svg>
